<svg width="600" height="600" fill="none" xmlns="http://www.w3.org/2000/svg"><style>@media (prefers-color-scheme:dark){.main{fill:#f0f0f0}}</style><path class="main" fill-rule="evenodd" clip-rule="evenodd" d="M329.617 598.557C481.4 583.682 600 455.691 600 300 600 134.315 465.685 0 300 0 215.315 0 138.825 35.089 84.277 91.52l18.754 38.758C150.71 74.995 221.268 40 300 40c143.594 0 260 116.406 260 260 0 139.958-110.586 254.088-249.147 259.778l18.764 38.779ZM78.919 163.099C54.246 202.859 40 249.766 40 300c0 133.498 100.613 243.497 230.147 258.305l20.1 41.539C129.076 594.697 0 462.422 0 300c0-66.84 21.859-128.574 58.817-178.444l20.102 41.543ZM533 300.5C533 428.906 428.906 533 300.5 533S68 428.906 68 300.5 172.094 68 300.5 68 533 172.094 533 300.5ZM305 382c49.153 0 89-39.847 89-89s-39.847-89-89-89-89 39.847-89 89 39.847 89 89 89Zm0 36c69.036 0 125-55.964 125-125s-55.964-125-125-125-125 55.964-125 125c0 2.349.065 4.683.193 7H180v136.089h36v-55.317C238.667 403.755 270.17 418 305 418Z" fill="#1E1E1E"/></svg>